<svg xmlns="http://www.w3.org/2000/svg" xmlns:svg="http://www.w3.org/2000/svg" id="svg2" width="40" height="40" version="1.1"><metadata id="metadata7"/><g id="layer1" transform="translate(0,-1012.3622)"><path style="color:#000;fill:#6fb1f9;fill-opacity:.25098039;fill-rule:nonzero;stroke:none;stroke-width:0;marker:none;visibility:visible;display:inline;overflow:visible;enable-background:accumulate" id="rect3757" d="m 0,1016.3622 0,1 1,0 0,-1 -1,0 z m 5,0 0,1 1,0 0,-1 -1,0 z m 5,0 0,1 1,0 0,-1 -1,0 z m 5,0 0,1 1,0 0,-1 -1,0 z m 5,0 0,1 1,0 0,-1 -1,0 z m 5,0 0,1 1,0 0,-1 -1,0 z m 5,0 0,1 1,0 0,-1 -1,0 z m 5,0 0,1 1,0 0,-1 -1,0 z m -35,5 0,1 1,0 0,-1 -1,0 z m 5,0 0,1 1,0 0,-1 -1,0 z m 5,0 0,1 1,0 0,-1 -1,0 z m 5,0 0,1 1,0 0,-1 -1,0 z m 5,0 0,1 1,0 0,-1 -1,0 z m 5,0 0,1 1,0 0,-1 -1,0 z m 5,0 0,1 1,0 0,-1 -1,0 z m 5,0 0,1 1,0 0,-1 -1,0 z m -35,5 0,1 1,0 0,-1 -1,0 z m 5,0 0,1 1,0 0,-1 -1,0 z m 5,0 0,1 1,0 0,-1 -1,0 z m 5,0 0,1 1,0 0,-1 -1,0 z m 5,0 0,1 1,0 0,-1 -1,0 z m 5,0 0,1 1,0 0,-1 -1,0 z m 5,0 0,1 1,0 0,-1 -1,0 z m 5,0 0,1 1,0 0,-1 -1,0 z m -35,5 0,1 1,0 0,-1 -1,0 z m 5,0 0,1 1,0 0,-1 -1,0 z m 5,0 0,1 1,0 0,-1 -1,0 z m 5,0 0,1 1,0 0,-1 -1,0 z m 5,0 0,1 1,0 0,-1 -1,0 z m 5,0 0,1 1,0 0,-1 -1,0 z m 5,0 0,1 1,0 0,-1 -1,0 z m 5,0 0,1 1,0 0,-1 -1,0 z m -35,5 0,1 1,0 0,-1 -1,0 z m 5,0 0,1 1,0 0,-1 -1,0 z m 5,0 0,1 1,0 0,-1 -1,0 z m 5,0 0,1 1,0 0,-1 -1,0 z m 5,0 0,1 1,0 0,-1 -1,0 z m 5,0 0,1 1,0 0,-1 -1,0 z m 5,0 0,1 1,0 0,-1 -1,0 z m 5,0 0,1 1,0 0,-1 -1,0 z m -35,5 0,1 1,0 0,-1 -1,0 z m 5,0 0,1 1,0 0,-1 -1,0 z m 5,0 0,1 1,0 0,-1 -1,0 z m 5,0 0,1 1,0 0,-1 -1,0 z m 5,0 0,1 1,0 0,-1 -1,0 z m 5,0 0,1 1,0 0,-1 -1,0 z m 5,0 0,1 1,0 0,-1 -1,0 z m 5,0 0,1 1,0 0,-1 -1,0 z m -35,5 0,1 1,0 0,-1 -1,0 z m 5,0 0,1 1,0 0,-1 -1,0 z m 5,0 0,1 1,0 0,-1 -1,0 z m 5,0 0,1 1,0 0,-1 -1,0 z m 5,0 0,1 1,0 0,-1 -1,0 z m 5,0 0,1 1,0 0,-1 -1,0 z m 5,0 0,1 1,0 0,-1 -1,0 z m 5,0 0,1 1,0 0,-1 -1,0 z m -35,5 0,1 1,0 0,-1 -1,0 z m 5,0 0,1 1,0 0,-1 -1,0 z m 5,0 0,1 1,0 0,-1 -1,0 z m 5,0 0,1 1,0 0,-1 -1,0 z m 5,0 0,1 1,0 0,-1 -1,0 z m 5,0 0,1 1,0 0,-1 -1,0 z m 5,0 0,1 1,0 0,-1 -1,0 z m 5,0 0,1 1,0 0,-1 -1,0 z"/></g></svg>