<svg xmlns="http://www.w3.org/2000/svg" xmlns:svg="http://www.w3.org/2000/svg" id="svg3025" width="120" height="30" version="1.1"><metadata id="metadata3030"/><g id="layer1" transform="translate(0,-1022.3622)"><path style="color:#000;fill:#202020;fill-opacity:.87843137;fill-rule:nonzero;stroke:none;stroke-width:.99999994;marker:none;visibility:visible;display:inline;overflow:visible;enable-background:accumulate" id="path3007" d="m 11.5,1032.3622 -1.5,1.5 3.5,3.5 -3.5,3.5 1.5,1.5 3.5,-3.5 3.5,3.5 1.5,-1.5 -3.5,-3.5 3.5,-3.5 -1.5,-1.5 -3.5,3.5 z"/><path id="path2461-7" d="m 44.5,1032.3622 c -0.277,0 -0.5,0.223 -0.5,0.5 l 0,3.5 -3.5,0 c -0.277,0 -0.5,0.223 -0.5,0.5 l 0,1 c 0,0.277 0.223,0.5 0.5,0.5 l 3.5,0 0,3.5 c 0,0.277 0.223,0.5 0.5,0.5 l 1,0 c 0.277,0 0.5,-0.223 0.5,-0.5 l 0,-3.5 3.5,0 c 0.277,0 0.5,-0.223 0.5,-0.5 l 0,-1 c 0,-0.277 -0.223,-0.5 -0.5,-0.5 l -3.5,0 0,-3.5 c 0,-0.277 -0.223,-0.5 -0.5,-0.5 l -1,0 z" style="color:#000;fill:#202020;fill-opacity:.87843137;fill-rule:nonzero;stroke:none;stroke-width:.99999994;marker:none;visibility:visible;display:inline;overflow:visible;enable-background:accumulate"/><path id="path2461-7-2" d="m 70.5,1036.3622 c -0.277,0 -0.5,0.223 -0.5,0.5 l 0,1 c 0,0.277 0.223,0.5 0.5,0.5 l 9,0 c 0.277,0 0.5,-0.223 0.5,-0.5 l 0,-1 c 0,-0.277 -0.223,-0.5 -0.5,-0.5 z" style="color:#000;fill:#202020;fill-opacity:.87843137;fill-rule:nonzero;stroke:none;stroke-width:.99999994;marker:none;visibility:visible;display:inline;overflow:visible;enable-background:accumulate"/><path id="path6407" d="m 110,1032.3622 0,5 -2,-2 -5,5 2,2 -5,0 0,-5 2,2 5,-5 -2,-2 z" style="color:#000;fill:#202020;fill-opacity:.87843137;fill-rule:nonzero;stroke:none;stroke-width:.99999994;marker:none;visibility:visible;display:inline;overflow:visible;enable-background:accumulate"/></g></svg>