<svg xmlns="http://www.w3.org/2000/svg" xmlns:svg="http://www.w3.org/2000/svg" id="svg4900" width="16" height="16" version="1.1"><metadata id="metadata4905"/><g id="layer1" transform="translate(0,-1036.3622)"><path style="color:#000;fill:#202020;fill-opacity:1;fill-rule:nonzero;stroke:none;stroke-width:0;marker:none;visibility:visible;display:inline;overflow:visible;enable-background:accumulate" id="path4917" d="M 8 3.5 L 4 7.5 L 3.5 14 L 12.5 14 L 12 7.5 L 8 3.5 z M 7.5 7.5 L 8.5 7.5 L 9 10 L 7 10 L 7.5 7.5 z" transform="translate(0,1036.3622)"/><path style="color:#000;fill:#202020;fill-opacity:1;fill-rule:nonzero;stroke:none;stroke-width:0;marker:none;visibility:visible;display:inline;overflow:visible;enable-background:accumulate" id="path4919" d="m 3.5,1050.3622 -3.5,2 16,0 -3.5,-2"/><path style="color:#000;fill:#202020;fill-opacity:1;fill-rule:nonzero;stroke:none;stroke-width:0;marker:none;visibility:visible;display:inline;overflow:visible;enable-background:accumulate" id="path5691" d="m 2.5,1038.3622 2,-2 3,3 -2,2"/><path id="path5693" d="m 14,1038.8622 -2,-2 -3,3 2,2" style="color:#000;fill:#202020;fill-opacity:1;fill-rule:nonzero;stroke:none;stroke-width:0;marker:none;visibility:visible;display:inline;overflow:visible;enable-background:accumulate"/><path style="color:#000;fill:#202020;fill-opacity:1;fill-rule:nonzero;stroke:none;stroke-width:0;marker:none;visibility:visible;display:inline;overflow:visible;enable-background:accumulate" id="path5695" d="m 6,1045.8622 -2,-2 -2.5,2.5 2,2"/><path id="path5697" d="m 9,1045.8622 2,-2 2.5,2.5 -2,2" style="color:#000;fill:#202020;fill-opacity:1;fill-rule:nonzero;stroke:none;stroke-width:0;marker:none;visibility:visible;display:inline;overflow:visible;enable-background:accumulate"/></g></svg>