<svg xmlns="http://www.w3.org/2000/svg" xmlns:svg="http://www.w3.org/2000/svg" id="svg3238" width="40" height="45" version="1.1"><metadata id="metadata3243"/><g id="layer1" transform="translate(0,-1007.3622)"><path id="path4577" d="m 11.5,1007.3622 -3,3 8,8 1.99999,-4 -7,-7 z m -3.5,3.5 -1.5,1.5 8.5,8.5 1.5,-1.5 -8.5,-8.5 z m 24,0 -8.5,8.5 1.5,1.5 8.5,-8.5 -1.5,-1.5 z m 2,2 -8,8 4,2 7,-7 -3,-3 z m -14,4 -9.34375,9.3437 -0.65625,-0.3437 -7,7 3,3 3.8125,-3.8125 -0.125,1.125 -3.1875,3.1875 1.5,1.5 1.28125,-1.2813 L 8,1047.3622 c -5,1.0001 -8,5 -8,5 l 40,0 c 0,0 -3,-3.9999 -8,-5 l -1,-8.5 0.5,-0.5 -0.625,-0.5313 -0.15626,-1.25 1.28126,1.2813 1.5,-1.5 -3.1875,-3.1875 -0.81251,-6.8125 -9.49999,-9.5 z m -1.5,11.5 3,0 1,6 -5,0 1,-6 z" style="color:#000;fill:#404040;fill-opacity:1;fill-rule:nonzero;stroke:none;stroke-width:.055;marker:none;visibility:visible;display:inline;overflow:visible;enable-background:accumulate"/></g></svg>